<svg version="1.2" xmlns="http://www.w3.org/2000/svg" viewBox="0 0 47 68" width="47" height="68">
	<title>doi-svg</title>
	<style>
		.s0 { fill: #4f5858 } 
		.s1 { fill: #3eb1c8 } 
		.s2 { fill: #d8d2c4 } 
		.s3 { fill: #ffc72c } 
		.s4 { fill: #ef3340 } 
	</style>
	<g id="Layer">
		<g id="Layer">
			<g id="Layer">
				<g id="Layer">
					<path id="Layer" class="s0" d="m76.1 37.5c-0.4-2.6-2.9-4.6-5.8-4.6-5.2 0-7.2 4.4-7.2 9.1 0 4.4 2 8.9 7.2 8.9 3.6 0 5.6-2.4 6-5.9h5.7c-0.6 6.6-5.1 10.8-11.6 10.8-8.2 0-13-6.1-13-13.7 0-7.9 4.8-14 13-14 5.8 0 10.7 3.4 11.4 9.5h-5.7z"/>
					<path id="Layer" class="s0" d="m84 35.9h5v3.6h0.1c1-2.4 3.6-4.1 6.1-4.1 0.4 0 0.8 0.1 1.1 0.2v4.9c-0.5-0.1-1.3-0.2-1.9-0.2-3.9 0-5.2 2.8-5.2 6.1v8.6h-5.2z"/>
					<path id="Layer" fill-rule="evenodd" class="s0" d="m106.4 35.4c6 0 9.9 4 9.9 10.1 0 6.1-3.9 10.1-9.9 10.1-6 0-9.9-4-9.9-10.1 0-6.1 3.9-10.1 9.9-10.1zm0 16.2c3.6 0 4.7-3.1 4.7-6.1 0-3.1-1.1-6.1-4.7-6.1-3.6 0-4.6 3.1-4.6 6.1 0 3.1 1 6.1 4.6 6.1z"/>
					<path id="Layer" class="s0" d="m122.4 48.9c0 2.3 2 3.2 4 3.2 1.5 0 3.4-0.6 3.4-2.4 0-1.6-2.2-2.1-6-3-3-0.7-6.1-1.7-6.1-5.1 0-4.9 4.2-6.1 8.3-6.1 4.2 0 8 1.4 8.4 6.1h-5c-0.1-2-1.7-2.6-3.6-2.6-1.2 0-2.9 0.2-2.9 1.8 0 1.9 3 2.1 6 2.9 3.1 0.7 6.1 1.8 6.1 5.4 0 5-4.4 6.7-8.7 6.7-4.4 0-8.8-1.7-9-6.7h5.1z"/>
					<path id="Layer" class="s0" d="m141.6 48.9c0 2.3 2 3.2 4 3.2 1.5 0 3.4-0.6 3.4-2.4 0-1.6-2.2-2.1-6-3-3-0.7-6.1-1.7-6.1-5.1 0-4.9 4.2-6.1 8.3-6.1 4.2 0 8 1.4 8.4 6.1h-5c-0.1-2-1.7-2.6-3.6-2.6-1.2 0-2.9 0.2-2.9 1.8 0 1.9 3 2.1 6 2.9 3.1 0.7 6.1 1.8 6.1 5.4 0 5-4.4 6.7-8.7 6.7-4.4 0-8.8-1.7-9-6.7h5.1z"/>
					<path id="Layer" class="s0" d="m156.1 35.9h5v3.6h0.1c1-2.4 3.6-4.1 6.1-4.1 0.4 0 0.8 0.1 1.1 0.2v4.9c-0.5-0.1-1.3-0.2-1.9-0.2-3.9 0-5.2 2.8-5.2 6.1v8.6h-5.3v-19.1z"/>
					<path id="Layer" fill-rule="evenodd" class="s0" d="m174.2 46.8c0.1 3.3 1.8 4.9 4.7 4.9 2.1 0 3.8-1.3 4.1-2.5h4.6c-1.5 4.5-4.6 6.4-9 6.4-6 0-9.8-4.1-9.8-10.1 0-5.7 4-10.1 9.8-10.1 6.5 0 9.7 5.5 9.3 11.4zm8.5-3.3c-0.5-2.7-1.6-4.1-4.2-4.1-3.3 0-4.3 2.6-4.4 4.1z"/>
					<path id="Layer" class="s0" d="m190.9 39.5h-3.1v-3.5h3.1v-1.5c0-3.4 2.1-5.8 6.4-5.8 0.9 0 1.9 0.1 2.8 0.1v3.9c-0.6-0.1-1.3-0.1-1.9-0.1-1.4 0-2 0.6-2 2.2v1.1h3.6v3.5h-3.6v15.6h-5.3z"/>
				</g>
			</g>
		</g>
	</g>
	<path id="Layer" class="s1" d="m0 67.9v-20.5l16.8-5.5 29.8 10.2z"/>
	<path id="Layer" class="s2" d="m29.8 26.1l-29.8 10.3 16.8 5.5 29.8-10.2z"/>
	<path id="Layer" class="s0" d="m16.8 41.9l29.8-10.2v20.4z"/>
	<path id="Layer" class="s3" d="m46.6 0.2v20.4l-16.8 5.5-29.8-10.2z"/>
	<path id="Layer" class="s4" d="m29.8 26.1l-29.8 10.3v-20.5z"/>
</svg>