<svg version="1.2" xmlns="http://www.w3.org/2000/svg" viewBox="0 0 100 100" width="100" height="100">
	<title>mag-svg</title>
	<style>
		.s0 { fill: #2e9fd9 } 
	</style>
	<path id="Layer" class="s0" d="m79.4 100c-16.7-12.4-44.6-33.5-79.2-38.1l14.8-14.4c42.5 16.4 64.4 52.5 64.4 52.5zm-77.4-23.2l11.5-9.2c33.7 8.3 62.3 32.4 62.3 32.4-12-6.8-46.2-23.5-73.8-23.2zm10.6-33.5l38.5-34.3 8.3 4.8-18.7 21.2c20.2 16.6 42.5 34.3 40.5 63.1-19.8-28.1-43.2-48.2-68.6-54.8zm32.9-8.9l29.6-34.4c15.8 12.9 24.7 33 24.7 43.8-1.3 13.8-14.9 47.3-16.1 51-0.9-8.4 6-23.2-38.2-60.4z"/>
</svg>