<svg version="1.2" xmlns="http://www.w3.org/2000/svg" viewBox="0 0 69 54" width="69" height="54">
	<title>pmcid-svg</title>
	<defs>
		<clipPath clipPathUnits="userSpaceOnUse" id="cp1">
			<path d="m0 0h271.81v53.43h-271.81z"/>
		</clipPath>
	</defs>
	<style>
		.s0 { fill: #000000 } 
	</style>
	<g id="Layer_2">
		<g id="Clip-Path: Layer_1-2" clip-path="url(#cp1)">
			<g id="Layer_1-2">
				<path id="Layer" fill-rule="evenodd" class="s0" d="m7.5 45.5v-20h7.3q0.4 0 0.8 0.1 0.4 0 0.8 0 0.3 0.1 0.7 0.1 0.4 0.1 0.8 0.2 0.3 0 0.6 0.1 0.4 0.1 0.7 0.3 0.3 0.1 0.6 0.3 0.3 0.1 0.6 0.3 0.2 0.2 0.5 0.4 0.2 0.3 0.5 0.5 0.2 0.3 0.3 0.6 0.2 0.2 0.4 0.5 0.1 0.4 0.3 0.8 0.1 0.3 0.2 0.7 0 0.4 0.1 0.8 0 0.4 0 0.8 0 0.4 0 0.8-0.1 0.3-0.2 0.7 0 0.4-0.2 0.8-0.1 0.3-0.3 0.7-0.1 0.3-0.3 0.6-0.2 0.3-0.4 0.5-0.2 0.3-0.4 0.5-0.3 0.3-0.6 0.5-0.2 0.2-0.5 0.4-0.3 0.2-0.7 0.3-0.3 0.2-0.6 0.3-0.3 0.1-0.7 0.2-0.3 0.1-0.7 0.2-0.4 0.1-0.8 0.1-0.3 0.1-0.7 0.1-0.4 0-0.8 0h-2.8v6.8zm4.5-10.3h2.5q3.7 0 3.7-3.2 0-0.3 0-0.7-0.1-0.3-0.2-0.6-0.1-0.3-0.3-0.5-0.2-0.3-0.4-0.5-0.3-0.2-0.6-0.3-0.4-0.1-0.7-0.2-0.4-0.1-0.7-0.1-0.4-0.1-0.7 0h-2.6zm13.2 10.3v-20h5.2l3.3 9 1.2 3.5h0.1l1.2-3.5 3.3-9h5v20h-4.5v-7.3q0-0.7 0.1-1.6 0.1-0.9 0.2-1.8 0.1-0.9 0.2-1.8 0-0.9 0.2-1.6h-0.2l-1.7 4.6-3 7.8h-1.8l-3.1-7.8-1.6-4.6h-0.2c0.1 0.5 0.2 1 0.2 1.6 0.1 0.6 0.2 1.2 0.2 1.8q0.1 0.9 0.2 1.8 0 0.9 0.1 1.6v7.3zm22.2-9.8q0-0.6 0-1.2 0.1-0.5 0.2-1.1 0-0.6 0.2-1.1 0.1-0.5 0.4-1.1 0.1-0.4 0.3-0.9 0.3-0.4 0.5-0.8 0.3-0.5 0.6-0.8 0.3-0.4 0.6-0.8 0.4-0.3 0.7-0.6 0.4-0.3 0.7-0.6 0.4-0.2 0.8-0.5 0.4-0.2 0.8-0.3 0.5-0.2 0.9-0.4 0.5-0.1 0.9-0.2 0.5-0.1 1-0.1 0.4-0.1 0.9-0.1 0.5 0 0.9 0.1 0.4 0 0.9 0.1 0.4 0.1 0.8 0.3 0.4 0.1 0.8 0.3 0.4 0.2 0.7 0.4 0.3 0.2 0.6 0.4 0.4 0.3 0.7 0.5 0.3 0.3 0.5 0.6l-2.4 2.8q-0.2-0.2-0.4-0.3-0.2-0.2-0.4-0.3-0.2-0.2-0.4-0.3-0.2-0.1-0.4-0.2-0.2-0.1-0.4-0.2-0.3-0.1-0.5-0.1-0.2-0.1-0.5-0.1-0.2 0-0.4 0-0.3 0-0.5 0-0.3 0-0.6 0.1-0.2 0-0.5 0.1-0.2 0.1-0.4 0.2-0.3 0.1-0.5 0.3-0.2 0.1-0.4 0.3-0.2 0.1-0.4 0.3-0.1 0.2-0.3 0.4-0.2 0.2-0.3 0.4-0.2 0.3-0.3 0.5-0.2 0.3-0.3 0.5-0.1 0.3-0.2 0.6-0.1 0.3-0.1 0.6-0.1 0.4-0.2 0.7 0 0.4 0 0.7-0.1 0.3-0.1 0.7 0 0.6 0.1 1.2 0 0.7 0.2 1.3 0.2 0.6 0.4 1.2 0.3 0.6 0.7 1.1 0.3 0.4 0.7 0.7 0.4 0.4 0.9 0.6 0.4 0.2 0.9 0.3 0.5 0.1 1.1 0.1 0.2 0 0.5 0 0.3 0 0.6-0.1 0.2-0.1 0.5-0.2 0.3-0.1 0.5-0.2 0.3-0.1 0.5-0.3 0.2-0.1 0.4-0.3 0.2-0.1 0.4-0.3 0.2-0.2 0.4-0.4l2.5 2.8q-0.3 0.3-0.7 0.7-0.3 0.3-0.6 0.6-0.4 0.2-0.8 0.5-0.4 0.2-0.8 0.4-0.4 0.2-0.8 0.3-0.5 0.2-0.9 0.3-0.4 0.1-0.9 0.1-0.4 0.1-0.9 0.1-0.5 0-0.9-0.1-0.5 0-0.9-0.1-0.5-0.1-1-0.2-0.4-0.1-0.8-0.3-0.5-0.2-0.9-0.4-0.4-0.2-0.7-0.4-0.4-0.3-0.8-0.6-0.3-0.3-0.6-0.6-0.4-0.4-0.7-0.7-0.3-0.4-0.5-0.8-0.3-0.4-0.5-0.8-0.2-0.5-0.3-0.9-0.2-0.5-0.4-1.1-0.1-0.5-0.2-1.1-0.1-0.5-0.2-1.1 0-0.6 0-1.1z"/>
				<path id="Layer" fill-rule="evenodd" class="s0" d="m35.7 0l33.7 14.6h-69.4zm-35.7 16.8h69.3l0.1 3.2h-69.4zm0 33.4h69.4v3.2h-69.4z"/>
			</g>
		</g>
	</g>
</svg>