<svg version="1.2" xmlns="http://www.w3.org/2000/svg" viewBox="0 0 238 273" width="238" height="273">
	<title>pmid-svg</title>
	<style>
		.s0 { fill: #231f1f } 
		.s1 { fill: #aaaaaa } 
		.s2 { fill: #3978ad } 
		.s3 { fill: #ffffff } 
	</style>
	<g id="eeeee5ae-d31d-4100-93b9-64caf8dacf33">
	</g>
	<g id="ec815060-b502-4251-879e-ec412b246abb">
	</g>
	<g id="Layer">
		<path id="Layer" class="s0" d="m4.3 15.2v169.8c0 0 65.3-7.6 65.3 56.2v-160.8c0-60.7-65.3-65.2-65.3-65.2z"/>
	</g>
	<g id="Layer">
		<path id="Layer" class="s1" d="m34.9 3.2v149.5c0 0 36 6.9 36 70.7 0 63.8 0.2-118.7 0.2-152.8 0-60.8-36.2-67.4-36.2-67.4z"/>
	</g>
	<g id="Layer">
		<path id="Layer" class="s2" d="m72.1 79v154.5c0 0 31.3-87.8 163.1 25.3 0-41 0.3-144.4 0.3-178.5-130.3-94.9-163.4-1.3-163.4-1.3z"/>
	</g>
	<g id="Layer">
		<path id="Layer" class="s3" d="m84.5 194.6h29.2l9.5-65h0.3l25.9 65h11.6l27.2-65h0.2l8.3 65h29.4l-17.1-112.9h-29.2l-24.3 60.3-22.9-60.3h-28.9z"/>
	</g>
</svg>